<svg xmlns="http://www.w3.org/2000/svg" viewBox="0 0 64 64" fill="currentColor" role="img" aria-label="DubaiPoints mark">
  <path d="M61.29,15.78c-0.03-0.43-0.08-0.84-0.13-1.24C60.12,7.77,54.17,2.67,47.31,2.67H16.69c-3.37,0-6.63,1.22-9.16,3.42 c-2.52,2.16-4.19,5.17-4.68,8.44c-0.06,0.41-0.11,0.82-0.14,1.25c-0.04,0.36-0.04,0.67-0.04,0.91v30.62c0,0.24,0,0.55,0.04,0.91 c0.03,0.43,0.08,0.84,0.13,1.23c1.03,6.77,6.98,11.88,13.85,11.88h30.62c3.36,0,6.62-1.22,9.16-3.42 c2.53-2.18,4.19-5.18,4.681-8.44c0.06-0.4,0.109-0.82,0.14-1.25c0.04-0.36,0.04-0.67,0.04-0.91V16.69 C61.33,16.45,61.33,16.14,61.29,15.78z M59.05,47.3c0,0.25,0,0.47-0.03,0.72C58.7,54.19,53.55,59.06,47.3,59.06H16.69 c-6.24,0-11.38-4.87-11.72-11.08c-0.02-0.21-0.02-0.44-0.02-0.68V16.69c0-0.24,0-0.46,0.03-0.7C5.31,9.81,10.45,4.94,16.69,4.94 H47.3c6.25,0,11.4,4.87,11.72,11.09c0.03,0.19,0.03,0.42,0.03,0.66V47.3z"/>
  <path d="M23.46,5.94v52.12h-6.77c-5.7,0-10.41-4.46-10.72-10.17c-0.03-0.2-0.02-0.39-0.02-0.59V16.69c0-0.2-0.01-0.38,0.02-0.61 c0.31-5.69,5.02-10.14,10.72-10.14H23.46z"/>
  <path d="M58.05,16.69v5.95H24.46V5.94H47.3c5.71,0,10.42,4.45,10.73,10.18C58.06,16.32,58.05,16.5,58.05,16.69z"/>
  <path d="M58.05,41.36v5.94c0,0.2,0.01,0.38-0.03,0.62c-0.3,5.69-5.01,10.14-10.72,10.14H24.46v-16.7H58.05z"/>
</svg>
