
        <svg xmlns="http://www.w3.org/2000/svg" xmlns:xlink="http://www.w3.org/1999/xlink" version="1.1" width="3134.876420554553" height="738.8996767620041" viewBox="0 0 3134.876420554553 738.8996767620041">
&#x9;&#x9;&#x9;
&#x9;&#x9;&#x9;<g transform="scale(6.743821027727661) translate(10, 10)">
&#x9;&#x9;&#x9;&#x9;<defs id="SvgjsDefs2256"></defs><g id="SvgjsG2257" featureKey="nameLeftFeature-0" transform="matrix(2.656015141441362,0,0,2.656015141441362,-1.6525466904492756,9.079337138218207)" fill="currentColor"><path d="M5.2496 6.82 c4.167 0 7.3572 1.6604 7.3572 6.5004 c0 3.8 -2.831 6.68 -7.358 6.68 l-4.4688 0 c-0.093008 0 -0.15781 -0.064804 -0.15781 -0.15801 c0 -0.089004 0.064804 -0.15381 0.15781 -0.15381 l0.51801 0 c0.2906 0 0.48122 -0.219 0.48122 -0.4618 l0 -11.631 c0 -0.2436 -0.1898 -0.4636 -0.48122 -0.4636 l-0.51801 0 c-0.093008 0 -0.15781 -0.064804 -0.15781 -0.15381 c0 -0.093204 0.064804 -0.15801 0.15781 -0.15801 l4.4696 0 z M5.2488 19.68864 c2.8572 0 5.5498 -2.2286 5.5498 -6.3686 c0 -4.18 -2.4718 -6.1882 -5.549 -6.1882 l-1.2856 0 c-0.2906 0 -0.48122 0.219 -0.48122 0.4618 l0 11.631 c0 0.2436 0.1898 0.4636 0.48122 0.4636 l1.2848 0 z M25.834000000000003 6.82 c0.093204 0 0.15809 0.064844 0.15809 0.15385 c0 0.093008 -0.064804 0.15781 -0.15801 0.15781 l-0.51801 0 c-0.2972 0 -0.48202 0.229 -0.48202 0.478 l0 7.6876 c0 3.5856 -2.1406 4.8318 -4.6296 4.8318 c-2.0366 0 -4.7248 -0.878 -4.7248 -4.8952 l0 -7.6242 c0 -0.249 -0.1848 -0.478 -0.48202 -0.478 l-0.51801 0 c-0.093008 0 -0.15781 -0.064804 -0.15781 -0.15381 c0 -0.093204 0.064804 -0.15801 0.15781 -0.15801 l3.7028 0 c0.093008 0 0.15781 0.064804 0.15781 0.15801 c0 0.089004 -0.064804 0.15381 -0.15781 0.15381 l-0.51801 0 c-0.2972 0 -0.48202 0.229 -0.48202 0.478 l0 7.9076 c0 3.1476 1.5538 4.1496 3.4386 4.1496 c2.0592 0 3.8682 -1.1882 3.8682 -4.324 l0 -7.7332 c0 -0.249 -0.1848 -0.478 -0.48202 -0.478 l-0.51801 0 c-0.093008 0 -0.15781 -0.064804 -0.15781 -0.15781 c0 -0.089004 0.064804 -0.15381 0.15781 -0.15381 l2.3448 0 z M33.3016 13.170200000000001 c2.7842 0.14119 4.279 1.1995 4.279 3.1658 c0 2.3842 -1.9048 3.6642 -5.1014 3.6642 l-5.0792 0 c-0.093008 0 -0.15781 -0.064804 -0.15781 -0.15801 c0 -0.089004 0.064804 -0.15381 0.15781 -0.15381 l0.51801 0 c0.2972 0 0.48202 -0.229 0.48202 -0.478 l0 -11.601 c0 -0.249 -0.1848 -0.478 -0.48202 -0.478 l-0.51801 0 c-0.093008 0 -0.15781 -0.064804 -0.15781 -0.15381 c0 -0.093204 0.064804 -0.15801 0.15781 -0.15801 l4.6676 0 c2.4724 0 4.6544 0.8428 4.6544 3.198 c0 1.5352 -1.1062 2.8332 -3.4204 3.1522 z M30.1054 7.609999999999999 l0.00019531 5.4886 l1.8718 0 c1.6 0 2.9392 -1.2642 2.9392 -3.0138 c0 -1.664 -0.8332 -2.9488 -2.965 -2.9526 l-1.3724 0 c-0.2902 0 -0.47378 0.2322 -0.47378 0.47782 z M32.3526 19.68866 c2.34 0 3.4192 -1.4684 3.4192 -3.3402 c0 -1.7282 -1.1772 -2.9302 -3.4192 -2.9302 l-2.2462 0 l0 5.7924 c0 0.249 0.1848 0.478 0.48202 0.478 l1.7642 0 z M51.509 19.6882 c0.089004 0 0.15762 0.064804 0.15762 0.15801 c0 0.089004 -0.069004 0.15381 -0.15801 0.15381 l-4.5034 0 c-0.089004 0 -0.15801 -0.064804 -0.15801 -0.15381 c0 -0.093204 0.069004 -0.15801 0.15801 -0.15801 l0.72 0 c0.402 0 0.62738 -0.303 0.47998 -0.7 l-1.239 -3.249 l-5.1044 0 l-1.2558 3.249 c-0.14 0.3616 0.08039 0.7 0.48 0.7 l0.72 0 c0.089004 0 0.15801 0.064804 0.15801 0.15801 c0 0.089004 -0.069004 0.15381 -0.15801 0.15381 l-2.9606 0 c-0.089004 0 -0.15801 -0.064804 -0.15801 -0.15381 c0 -0.093204 0.069004 -0.15801 0.15801 -0.15801 l0.48 0 c0.52 0 0.7558 -0.26 0.92 -0.7 l4.7614 -12.241 l0.37801 0 l4.7042 12.261 c0.1442 0.36 0.42 0.68 0.98 0.68 l0.44 0 z M41.9868 15.4316 l4.8658 0 l-2.4148 -6.332 z M56.2428 19.6882 c0.093008 0 0.15781 0.06461 0.15781 0.15361 c0 0.093204 -0.064804 0.15801 -0.15781 0.15801 l-3.702 0 c-0.093008 0 -0.15781 -0.064804 -0.15781 -0.15801 c0 -0.089004 0.064804 -0.15381 0.15781 -0.15381 l0.51801 0 c0.2906 0 0.48122 -0.2178 0.48122 -0.4618 l0 -11.631 c0 -0.2444 -0.1898 -0.4634 -0.48122 -0.4634 l-0.51801 0 c-0.093008 0 -0.15781 -0.064804 -0.15781 -0.15381 c0 -0.093204 0.064804 -0.15801 0.15781 -0.15801 l3.702 0 c0.093008 0 0.15781 0.064804 0.15781 0.15801 c0 0.089004 -0.064804 0.15381 -0.15781 0.15381 l-0.51801 0 c-0.2906 0 -0.48122 0.219 -0.48122 0.4618 l0 11.631 c0 0.2436 0.1898 0.4636 0.48122 0.4636 l0.51801 0 z"></path></g><g id="SvgjsG2258" featureKey="inlineSymbolFeature-0" transform="matrix(1.526882221360692,0,0,1.526882221360692,163.9232232603638,-4.076775647524917)" fill="currentColor"><g xmlns="http://www.w3.org/2000/svg"><g><g><path d="M61.29,15.78c-0.03-0.43-0.08-0.84-0.13-1.24C60.12,7.77,54.17,2.67,47.31,2.67H16.69c-3.37,0-6.63,1.22-9.16,3.42     c-2.52,2.16-4.19,5.17-4.68,8.44c-0.06,0.41-0.11,0.82-0.14,1.25c-0.04,0.36-0.04,0.67-0.04,0.91v30.62c0,0.24,0,0.55,0.04,0.91     c0.03,0.43,0.08,0.84,0.13,1.23c1.03,6.77,6.98,11.88,13.85,11.88h30.62c3.36,0,6.62-1.22,9.16-3.42     c2.53-2.18,4.19-5.18,4.681-8.44c0.06-0.4,0.109-0.82,0.14-1.25c0.04-0.36,0.04-0.67,0.04-0.91V16.69     C61.33,16.45,61.33,16.14,61.29,15.78z M59.05,47.3c0,0.25,0,0.47-0.03,0.72C58.7,54.19,53.55,59.06,47.3,59.06H16.69     c-6.24,0-11.38-4.87-11.72-11.08c-0.02-0.21-0.02-0.44-0.02-0.68V16.69c0-0.24,0-0.46,0.03-0.7C5.31,9.81,10.45,4.94,16.69,4.94     H47.3c6.25,0,11.4,4.87,11.72,11.09c0.03,0.19,0.03,0.42,0.03,0.66V47.3z"></path></g><g><path d="M23.46,5.94v52.12h-6.77c-5.7,0-10.41-4.46-10.72-10.17c-0.03-0.2-0.02-0.39-0.02-0.59V16.69c0-0.2-0.01-0.38,0.02-0.61     c0.31-5.69,5.02-10.14,10.72-10.14H23.46z"></path></g><g><path d="M58.05,16.69v5.95H24.46V5.94H47.3c5.71,0,10.42,4.45,10.73,10.18C58.06,16.32,58.05,16.5,58.05,16.69z"></path></g><g><path d="M58.05,41.36v5.94c0,0.2,0.01,0.38-0.03,0.62c-0.3,5.69-5.01,10.14-10.72,10.14H24.46v-16.7H58.05z"></path></g></g></g></g><g id="SvgjsG2259" featureKey="nameRightFeature-0" transform="matrix(2.64499813220868,0,0,2.64499813220868,264.08146466364803,9.30125557923444)" fill="currentColor"><path d="M14.841999999999999 10.4828 c0 2.38 -1.8988 4.0814 -4.8084 4.0814 l-1.9106 0 l0 4.6606 c0 0.2436 0.1898 0.4636 0.48122 0.4636 l1.0062 0 c0.093008 0 0.15781 0.064804 0.15781 0.15801 c0 0.089004 -0.064804 0.15381 -0.15801 0.15381 l-4.1902 0 c-0.093008 0 -0.15781 -0.064804 -0.15781 -0.15801 c0 -0.089004 0.064804 -0.15381 0.15781 -0.15381 l0.51801 0 c0.2906 0 0.48122 -0.2178 0.48122 -0.4618 l0 -11.631 c0 -0.2444 -0.1898 -0.4634 -0.48122 -0.4634 l-0.51801 0 c-0.093008 0 -0.15781 -0.064804 -0.15781 -0.15381 c0 -0.093204 0.064804 -0.15801 0.15781 -0.15801 l4.6138 0 c2.9096 0 4.8082 1.4828 4.8082 3.6628 z M8.123 14.2524 l1.5476 0 c2.1772 0 3.3752 -1.6096 3.3752 -3.7696 c0 -1.82 -0.998 -3.351 -3.3752 -3.351 l-1.0664 0 c-0.2906 0 -0.48122 0.219 -0.48122 0.4618 l0 6.6588 z M22.8144 6.695 c3.7924 0 5.998 2.8256 5.998 6.6456 s-2.2056 6.7882 -5.998 6.7882 c-3.7966 0 -5.998 -2.9682 -5.998 -6.7882 s2.2014 -6.6456 5.998 -6.6456 z M22.8144 19.78558 c3.0958 0 4.1888 -3.0848 4.1888 -6.4448 s-1.093 -6.302 -4.1888 -6.302 s-4.1888 2.942 -4.1888 6.302 s1.093 6.4448 4.1888 6.4448 z M34.382799999999996 19.6882 c0.093008 0 0.15781 0.06461 0.15781 0.15361 c0 0.093204 -0.064804 0.15801 -0.15781 0.15801 l-3.702 0 c-0.093008 0 -0.15781 -0.064804 -0.15781 -0.15801 c0 -0.089004 0.064804 -0.15381 0.15781 -0.15381 l0.51801 0 c0.2906 0 0.48122 -0.2178 0.48122 -0.4618 l0 -11.631 c0 -0.2444 -0.1898 -0.4634 -0.48122 -0.4634 l-0.51801 0 c-0.093008 0 -0.15781 -0.064804 -0.15781 -0.15381 c0 -0.093204 0.064804 -0.15801 0.15781 -0.15801 l3.702 0 c0.093008 0 0.15781 0.064804 0.15781 0.15801 c0 0.089004 -0.064804 0.15381 -0.15781 0.15381 l-0.51801 0 c-0.2906 0 -0.48122 0.219 -0.48122 0.4618 l0 11.631 c0 0.2436 0.1898 0.4636 0.48122 0.4636 l0.51801 0 z M46.900999999999996 6.82 c0.093204 0 0.15803 0.064454 0.15803 0.15346 c0 0.093008 -0.064804 0.15781 -0.15781 0.15781 l-0.51801 0 c-0.2972 0 -0.48202 0.229 -0.48202 0.478 l0 12.39 l-0.7918 0 l-7.8248 -11.482 l0 10.692 c0 0.249 0.1848 0.478 0.48202 0.478 l0.51801 0 c0.093204 0 0.15801 0.064804 0.15801 0.15801 c0 0.089004 -0.064804 0.15381 -0.15801 0.15381 l-2.3448 0 c-0.093008 0 -0.15781 -0.064804 -0.15781 -0.15381 c0 -0.093204 0.064804 -0.15801 0.15781 -0.15801 l0.51801 0 c0.2972 0 0.48202 -0.229 0.48202 -0.478 l0 -11.601 c0 -0.249 -0.1848 -0.478 -0.48202 -0.478 l-0.51801 0 c-0.093008 0 -0.15781 -0.064804 -0.15781 -0.15781 c0 -0.089004 0.064804 -0.15381 0.15781 -0.15381 l2.1806 0 l7.4358 10.908 l0 -10.118 c0 -0.249 -0.1848 -0.478 -0.48202 -0.478 l-0.51801 0 c-0.093204 0 -0.15801 -0.064804 -0.15801 -0.15781 c0 -0.089004 0.064804 -0.15381 0.15801 -0.15381 l2.3448 0 z M58.282 6.82 l-0.00019531 3.4846 c0 0.093204 -0.064804 0.15801 -0.15801 0.15801 c-0.089004 0 -0.15381 -0.064804 -0.15381 -0.15801 l0 -0.80961 c0 -1.38 -0.82 -2.3634 -2.46 -2.3634 l-1.007 0 c-0.2906 0 -0.48122 0.219 -0.48122 0.4618 l0 11.631 c0 0.2436 0.1898 0.4636 0.48122 0.4636 l0.51801 0 c0.093204 0 0.15801 0.064804 0.15801 0.15381 c0 0.093204 -0.064804 0.15801 -0.15801 0.15801 l-3.702 0 c-0.093008 0 -0.15781 -0.064804 -0.15781 -0.15801 c0 -0.089004 0.064804 -0.15381 0.15781 -0.15381 l0.51801 0 c0.2906 0 0.48122 -0.2178 0.48122 -0.4618 l0 -11.631 c0 -0.2444 -0.1898 -0.4634 -0.48122 -0.4634 l-0.689 0 c-1.7986 0 -2.7772 0.8248 -2.7772 2.6806 l0 0.4924 c0 0.093204 -0.064804 0.15801 -0.15781 0.15801 c-0.089004 0 -0.15381 -0.064804 -0.15381 -0.15801 l0 -3.4848 l10.223 0 z M63.64619999999999 20.129 c-2.3166 0 -4.0752 -1.3068 -4.0752 -2.8026 c0 -0.7228 0.391 -1.1594 0.87298 -1.1594 c0.3704 0 0.8042 0.2456 0.8042 0.7642 c0 0.649 -0.7158 0.771 -0.7158 1.271 c0 0.9118 1.7248 1.5794 2.9482 1.5794 c1.9634 0 3.5116 -1.0248 3.5116 -2.8716 c0 -3.653 -7.129 -2.3648 -7.129 -6.904 c0 -1.7704 1.4062 -3.3146 4.1862 -3.3146 c2.2338 0 4.038 1.2214 4.038 2.7008 c0 0.7352 -0.391 1.1758 -0.869 1.1758 c-0.3744 0 -0.8082 -0.2496 -0.8082 -0.7682 c0 -0.6656 0.7118 -0.7546 0.7118 -1.2546 c0 -0.8994 -1.7248 -1.5062 -2.944 -1.5062 c-1.52 0 -3.1614 0.5406 -3.1614 2.5212 c0 3.2952 7.3276 2.1958 7.3276 6.9206 c0 1.6172 -1.4186 3.6482 -4.698 3.6482 z"></path></g>
&#x9;&#x9;&#x9;</g>
&#x9;&#x9;</svg>